# This file uses meters as units for non-parametric coordinates.

mtllib Cube_Low.mtl
g default
v -102.343910 -59.156567 715.859924
v -102.343910 -53.241501 721.774963
v -108.258972 -53.241501 715.859924
v 108.258972 -53.241501 715.859924
v 102.343910 -53.241501 721.774963
v 102.343910 -59.156567 715.859924
v -108.258972 53.241501 715.859924
v -102.343910 53.241501 721.774963
v -102.343910 59.156567 715.859924
v 102.343910 59.156567 715.859924
v 102.343910 53.241501 721.774963
v 108.258972 53.241501 715.859924
v -108.258972 53.241501 600.298767
v -102.343910 59.156567 600.298767
v -102.343910 53.241501 594.383728
v 102.343910 53.241501 594.383728
v 102.343910 59.156567 600.298767
v 108.258972 53.241501 600.298767
v -108.258972 -53.241501 600.298767
v -102.343910 -53.241501 594.383728
v -102.343910 -59.156567 600.298767
v 102.343910 -59.156567 600.298767
v 102.343910 -53.241501 594.383728
v 108.258972 -53.241501 600.298767
vt 0.103225 0.796352
vt 0.103225 0.516300
vt 0.361276 0.516300
vt 0.361276 0.796352
vt 0.088890 0.796352
vt 0.088890 0.516300
vt 0.361276 0.501966
vt 0.103225 0.501966
vt 0.375611 0.796352
vt 0.375611 0.516300
vt 0.103225 0.810687
vt 0.361276 0.810687
vt 0.395990 0.796352
vt 0.395990 0.516301
vt 0.654041 0.516301
vt 0.654041 0.796352
vt 0.381655 0.516301
vt 0.381655 0.796352
vt 0.395990 0.501966
vt 0.654041 0.501966
vt 0.668376 0.516301
vt 0.668376 0.796352
vt 0.654041 0.810687
vt 0.395990 0.810687
vt 0.688754 0.998008
vt 0.688754 0.501966
vt 0.968806 0.501966
vt 0.968806 0.998008
vt 0.674420 0.998008
vt 0.674420 0.501966
vt 0.983141 0.998008
vt 0.983141 0.501966
vt 0.546386 0.498034
vt 0.546386 0.001992
vt 0.826438 0.001992
vt 0.826438 0.498034
vt 0.532052 0.498034
vt 0.532052 0.001992
vt 0.840773 0.498034
vt 0.840773 0.001992
vt 0.001962 0.498034
vt 0.001962 0.001992
vt 0.260014 0.001992
vt 0.260014 0.498034
vt 0.267103 0.498034
vt 0.267103 0.001992
vt 0.525155 0.001992
vt 0.525155 0.498034
vn -0.707107 -0.707107 0.000000
vn -0.707107 -0.707107 0.000000
vn -0.707107 -0.707107 0.000000
vn -0.707107 -0.707107 0.000000
vn 0.000000 -0.707105 0.707108
vn 0.000000 -0.707105 0.707108
vn 0.000000 -0.707105 0.707108
vn 0.000000 -0.707105 0.707108
vn -0.707106 0.000000 0.707108
vn -0.707106 0.000000 0.707108
vn -0.707106 0.000000 0.707108
vn -0.707106 0.000000 0.707108
vn 0.707107 -0.707107 0.000000
vn 0.707107 -0.707107 0.000000
vn 0.707107 -0.707107 0.000000
vn 0.707107 -0.707107 0.000000
vn 0.707106 0.000000 0.707108
vn 0.707106 0.000000 0.707108
vn 0.707106 0.000000 0.707108
vn 0.707106 0.000000 0.707108
vn -0.707107 0.707107 0.000000
vn -0.707107 0.707107 0.000000
vn -0.707107 0.707107 0.000000
vn -0.707107 0.707107 0.000000
vn 0.000000 0.707105 0.707108
vn 0.000000 0.707105 0.707108
vn 0.000000 0.707105 0.707108
vn 0.000000 0.707105 0.707108
vn 0.707107 0.707107 0.000000
vn 0.707107 0.707107 0.000000
vn 0.707107 0.707107 0.000000
vn 0.707107 0.707107 0.000000
vn -0.707106 0.000000 -0.707108
vn -0.707106 0.000000 -0.707108
vn -0.707106 0.000000 -0.707108
vn -0.707106 0.000000 -0.707108
vn 0.000000 0.707105 -0.707108
vn 0.000000 0.707105 -0.707108
vn 0.000000 0.707105 -0.707108
vn 0.000000 0.707105 -0.707108
vn 0.707106 0.000000 -0.707108
vn 0.707106 0.000000 -0.707108
vn 0.707106 0.000000 -0.707108
vn 0.707106 0.000000 -0.707108
vn 0.000000 -0.707105 -0.707108
vn 0.000000 -0.707105 -0.707108
vn 0.000000 -0.707105 -0.707108
vn 0.000000 -0.707105 -0.707108
vn 0.000000 0.000000 1.000000
vn 0.000000 0.000000 1.000000
vn 0.000000 0.000000 1.000000
vn 0.000000 0.000000 1.000000
vn 0.000000 1.000000 0.000000
vn 0.000000 1.000000 0.000000
vn 0.000000 1.000000 0.000000
vn 0.000000 1.000000 0.000000
vn 0.000000 0.000000 -1.000000
vn 0.000000 0.000000 -1.000000
vn 0.000000 0.000000 -1.000000
vn 0.000000 0.000000 -1.000000
vn 0.000000 -1.000000 0.000000
vn 0.000000 -1.000000 0.000000
vn 0.000000 -1.000000 0.000000
vn 0.000000 -1.000000 0.000000
vn 1.000000 0.000000 0.000000
vn 1.000000 0.000000 0.000000
vn 1.000000 0.000000 0.000000
vn 1.000000 0.000000 0.000000
vn -1.000000 0.000000 0.000000
vn -1.000000 0.000000 0.000000
vn -1.000000 0.000000 0.000000
vn -1.000000 0.000000 0.000000
vn -0.577355 -0.577347 0.577350
vn -0.577355 -0.577347 0.577350
vn -0.577355 -0.577347 0.577350
vn 0.577355 -0.577347 0.577350
vn 0.577355 -0.577347 0.577350
vn 0.577355 -0.577347 0.577350
vn -0.577355 0.577347 0.577350
vn -0.577355 0.577347 0.577350
vn -0.577355 0.577347 0.577350
vn 0.577355 0.577347 0.577350
vn 0.577355 0.577347 0.577350
vn 0.577355 0.577347 0.577350
vn -0.577349 0.577349 -0.577352
vn -0.577349 0.577349 -0.577352
vn -0.577349 0.577349 -0.577352
vn 0.577349 0.577349 -0.577352
vn 0.577349 0.577349 -0.577352
vn 0.577349 0.577349 -0.577352
vn -0.577349 -0.577349 -0.577352
vn -0.577349 -0.577349 -0.577352
vn -0.577349 -0.577349 -0.577352
vn 0.577349 -0.577349 -0.577352
vn 0.577349 -0.577349 -0.577352
vn 0.577349 -0.577349 -0.577352
s off
g Cube_Small
usemtl initialShadingGroup
f 1/17/1 3/14/2 19/13/3 21/18/4
f 2/39/5 1/36/6 6/35/7 5/40/8
f 3/14/9 2/19/10 8/20/11 7/15/12
f 4/1/13 6/5/14 22/6/15 24/2/16
f 5/11/17 4/1/18 12/4/19 11/12/20
f 7/15/21 9/21/22 14/22/23 13/16/24
f 9/25/25 8/29/26 11/30/27 10/26/28
f 10/9/29 12/4/30 18/3/31 17/10/32
f 13/16/33 15/23/34 20/24/35 19/13/36
f 15/31/37 14/28/38 17/27/39 16/32/40
f 16/7/41 18/3/42 24/2/43 23/8/44
f 21/33/45 20/37/46 23/38/47 22/34/48
f 2/41/49 5/42/50 11/43/51 8/44/52
f 9/25/53 10/26/54 17/27/55 14/28/56
f 15/45/57 16/46/58 23/47/59 20/48/60
f 21/33/61 22/34/62 6/35/63 1/36/64
f 4/1/65 24/2/66 18/3/67 12/4/68
f 19/13/69 3/14/70 7/15/71 13/16/72
f 1/17/73 2/19/74 3/14/75
f 4/1/76 5/11/77 6/5/78
f 7/15/79 8/20/80 9/21/81
f 10/9/82 11/12/83 12/4/84
f 13/16/85 14/22/86 15/23/87
f 16/7/88 17/10/89 18/3/90
f 19/13/91 20/24/92 21/18/93
f 22/6/94 23/8/95 24/2/96
