# This file uses meters as units for non-parametric coordinates.

mtllib DiamonWall.mtl
g default
v -36.123451 337.533417 2032.933838
v 29.326862 337.533417 2032.933838
v -36.123451 410.458496 2105.858887
v 29.326862 410.458496 2105.858887
v -36.123451 483.383545 2032.933838
v 29.326862 483.383545 2032.933838
v -36.123451 410.458496 1960.008789
v 29.326862 410.458496 1960.008789
vt 0.338911 0.814622
vt 0.383514 0.814622
vt 0.383514 0.864319
vt 0.338911 0.864319
vt 0.383514 0.814622
vt 0.338911 0.814622
vt 0.390573 0.764925
vt 0.435177 0.764925
vt 0.435177 0.814622
vt 0.390573 0.814622
vt 0.338911 0.764925
vt 0.383514 0.764925
vt 0.174304 0.764925
vt 0.224001 0.814622
vt 0.174304 0.864320
vt 0.124607 0.814622
vt 0.231759 0.814622
vt 0.281456 0.764925
vt 0.331153 0.814622
vt 0.281456 0.864320
vn 0.000000 -0.707107 0.707107
vn 0.000000 -0.707107 0.707107
vn 0.000000 -0.707107 0.707107
vn 0.000000 -0.707107 0.707107
vn 0.000000 0.707107 0.707107
vn 0.000000 0.707107 0.707107
vn 0.000000 0.707107 0.707107
vn 0.000000 0.707107 0.707107
vn 0.000000 0.707107 -0.707107
vn 0.000000 0.707107 -0.707107
vn 0.000000 0.707107 -0.707107
vn 0.000000 0.707107 -0.707107
vn 0.000000 -0.707107 -0.707107
vn 0.000000 -0.707107 -0.707107
vn 0.000000 -0.707107 -0.707107
vn 0.000000 -0.707107 -0.707107
vn 1.000000 0.000000 0.000000
vn 1.000000 0.000000 0.000000
vn 1.000000 0.000000 0.000000
vn 1.000000 0.000000 0.000000
vn -1.000000 0.000000 0.000000
vn -1.000000 0.000000 0.000000
vn -1.000000 0.000000 0.000000
vn -1.000000 0.000000 0.000000
s off
g Glow DiamondWall_Low
usemtl lambert3SG
f 1/1/1 2/2/2 4/3/3 3/4/4
f 3/4/5 4/3/6 6/5/7 5/6/8
f 5/7/9 6/8/10 8/9/11 7/10/12
f 7/11/13 8/12/14 2/2/15 1/1/16
f 2/13/17 8/14/18 6/15/19 4/16/20
f 7/17/21 1/18/22 3/19/23 5/20/24
g default
v -50.000000 -164.712067 1896.698975
v 50.000000 -164.712067 1896.698975
v -50.000000 -164.712067 2171.590576
v 50.000000 -164.712067 2171.590576
v -50.000000 -164.712067 2034.144775
v 50.000000 -164.712067 2034.144775
v -50.000000 -164.712067 1769.261230
v -40.000999 -164.712067 1759.262207
v 50.000000 -164.712067 1769.261230
v 40.000999 -164.712067 1759.262207
v -50.000000 -164.712067 2299.028320
v -40.000999 -164.712067 2309.027344
v 50.000000 -164.712067 2299.028320
v 40.000999 -164.712067 2309.027344
v -41.466164 424.039062 2171.590820
v -50.000000 432.572906 2174.137451
v -41.466164 424.039062 2295.493408
v -50.000000 432.572906 2299.028320
v 50.000000 432.572906 2174.137451
v 41.466164 424.039062 2171.590820
v 41.466164 424.039062 2295.493408
v 50.000000 432.572906 2299.028320
v -41.466164 424.039062 1896.698975
v -50.000000 432.572906 1894.152344
v -50.000000 524.291687 2034.145020
v -41.466164 514.089417 2034.145020
v 50.000000 432.572906 1894.152344
v 41.466164 424.039062 1896.698975
v 41.466164 514.089417 2034.145020
v 50.000000 524.291687 2034.145020
v -41.466164 393.540588 1896.698975
v -50.000000 385.006744 1894.152344
v -41.466164 393.540588 1772.796021
v -50.000000 385.006744 1769.261230
v 50.000000 385.006744 1894.152344
v 41.466164 393.540588 1896.698975
v 41.466164 393.540588 1772.796021
v 50.000000 385.006744 1769.261230
v -41.466164 393.540588 2171.590576
v -50.000000 385.006744 2174.137207
v -50.000000 293.287933 2034.144775
v -41.466164 303.490234 2034.144775
v 50.000000 385.006744 2174.137207
v 41.466164 393.540588 2171.590576
v 41.466164 303.490234 2034.144775
v 50.000000 293.287933 2034.144775
v -36.466164 424.039062 2300.493408
v -40.000999 432.572906 2309.027344
v 36.466164 424.039062 2300.493408
v 40.000999 432.572906 2309.027344
v -41.466164 424.039062 1772.796143
v -50.000000 432.572906 1769.261230
v -36.466164 424.039062 1767.796021
v -40.000999 432.572906 1759.262207
v 36.466164 424.039062 1767.796021
v 40.000999 432.572906 1759.262207
v 41.466164 424.039062 1772.796143
v 50.000000 432.572906 1769.261230
v -36.466164 393.540588 1767.796021
v -40.000999 385.006744 1759.262207
v 36.466164 393.540588 1767.796021
v 40.000999 385.006744 1759.262207
v -41.466164 393.540588 2295.493408
v -50.000000 385.006744 2299.028320
v -36.466164 393.540588 2300.493408
v -40.000999 385.006744 2309.027344
v 36.466164 393.540588 2300.493408
v 40.000999 385.006744 2309.027344
v 41.466164 393.540588 2295.493408
v 50.000000 385.006744 2299.028320
v -32.932327 791.710144 2171.590820
v -50.000000 774.642456 2166.519287
v -32.932327 881.301147 2034.145020
v -50.000000 860.927734 2034.145020
v 32.932327 791.710144 2171.590820
v 50.000000 774.642456 2166.519287
v 32.932327 881.301147 2034.145020
v 50.000000 860.927734 2034.145020
v -32.932327 791.710144 1896.698975
v -50.000000 774.642456 1901.770508
v -32.931824 791.710144 1776.330322
v -50.000000 774.642456 1769.261230
v 32.932327 791.710144 1896.698975
v 50.000000 774.642456 1901.770508
v 32.931824 791.710144 1776.330322
v 50.000000 774.642456 1769.261230
v -32.931824 791.710144 2291.959229
v -50.000000 774.642456 2299.028320
v -40.000999 774.642456 2309.027344
v 32.931824 791.710144 2291.959229
v 40.000999 774.642456 2309.027344
v 50.000000 774.642456 2299.028320
v -40.000999 774.642456 1759.262207
v 40.000999 774.642456 1759.262207
vt 0.750761 0.001992
vt 0.750761 0.376616
vt 0.665650 0.376616
vt 0.663915 0.001992
vt 0.757575 0.376616
vt 0.757575 0.001992
vt 0.663915 0.382432
vt 0.748352 0.382432
vt 0.570248 0.314111
vt 0.570248 0.001992
vt 0.751760 0.382432
vt 0.570248 0.321064
vt 0.474845 0.376616
vt 0.476581 0.001992
vt 0.476581 0.382432
vt 0.389734 0.376616
vt 0.389734 0.001992
vt 0.392143 0.382432
vt 0.382920 0.001992
vt 0.382920 0.376616
vt 0.388735 0.382432
vt 0.095617 0.001992
vt 0.093881 0.376616
vt 0.008770 0.376616
vt 0.008770 0.001992
vt 0.189284 0.001992
vt 0.189284 0.314111
vt 0.095617 0.382432
vt 0.011179 0.382432
vt 0.001956 0.376616
vt 0.001956 0.001992
vt 0.282951 0.001992
vt 0.284686 0.376616
vt 0.189284 0.321064
vt 0.007772 0.382432
vt 0.369797 0.001992
vt 0.369797 0.376616
vt 0.282951 0.382432
vt 0.376612 0.001992
vt 0.376612 0.376616
vt 0.367388 0.382432
vt 0.370796 0.382432
vt 0.515320 0.754192
vt 0.282205 0.754192
vt 0.282205 0.669081
vt 0.515320 0.663889
vt 0.282205 0.761006
vt 0.515320 0.761006
vt 0.276390 0.667346
vt 0.276390 0.751783
vt 0.344710 0.573679
vt 0.574122 0.573679
vt 0.526951 0.667346
vt 0.526951 0.749375
vt 0.337757 0.573679
vt 0.282205 0.478276
vt 0.515320 0.483468
vt 0.588006 0.573679
vt 0.276390 0.480011
vt 0.282205 0.393165
vt 0.515320 0.393165
vt 0.526951 0.480011
vt 0.276390 0.395574
vt 0.515320 0.386351
vt 0.282205 0.386351
vt 0.526951 0.397982
vt 0.276390 0.392166
vt 0.907132 0.483467
vt 0.674017 0.478276
vt 0.674017 0.393165
vt 0.907132 0.393165
vt 0.965934 0.573678
vt 0.736522 0.573678
vt 0.668201 0.480011
vt 0.668201 0.395574
vt 0.674017 0.386351
vt 0.907132 0.386351
vt 0.918763 0.480011
vt 0.918763 0.397982
vt 0.907132 0.663889
vt 0.674017 0.669081
vt 0.729569 0.573678
vt 0.979818 0.573678
vt 0.907132 0.754192
vt 0.674017 0.754192
vt 0.668201 0.667345
vt 0.918763 0.667345
vt 0.907132 0.761006
vt 0.674017 0.761006
vt 0.668201 0.751783
vt 0.918763 0.749375
vt 0.668201 0.755191
vt 0.763692 0.095653
vt 0.831840 0.095653
vt 0.831840 0.189320
vt 0.763692 0.189320
vt 0.763692 0.008806
vt 0.770506 0.001992
vt 0.825026 0.001992
vt 0.831840 0.008806
vt 0.831840 0.282987
vt 0.763692 0.282987
vt 0.831840 0.369834
vt 0.825026 0.376648
vt 0.770506 0.376648
vt 0.763692 0.369834
vt 0.594029 0.754192
vt 0.599845 0.751783
vt 0.603253 0.755191
vt 0.600844 0.761006
vt 0.599845 0.667346
vt 0.656362 0.667346
vt 0.656362 0.751783
vt 0.652955 0.755191
vt 0.655364 0.761006
vt 0.599845 0.573679
vt 0.656362 0.573679
vt 0.662178 0.754192
vt 0.599845 0.480011
vt 0.656362 0.480011
vt 0.603253 0.392166
vt 0.652955 0.392166
vt 0.600844 0.386351
vt 0.655364 0.386351
vt 0.213849 0.667345
vt 0.270366 0.667345
vt 0.270366 0.751783
vt 0.266959 0.755191
vt 0.217256 0.755191
vt 0.213849 0.751783
vt 0.213849 0.573678
vt 0.270366 0.573678
vt 0.214848 0.761006
vt 0.269368 0.761006
vt 0.213849 0.480011
vt 0.270366 0.480011
vt 0.213849 0.395574
vt 0.217256 0.392166
vt 0.266959 0.392166
vt 0.270366 0.395574
vt 0.214848 0.386351
vt 0.269368 0.386351
vt 0.151309 0.667345
vt 0.196194 0.667345
vt 0.196194 0.749375
vt 0.151309 0.749375
vt 0.151309 0.573678
vt 0.196194 0.573678
vt 0.146491 0.761006
vt 0.201011 0.761006
vt 0.151309 0.480011
vt 0.196194 0.480011
vt 0.151309 0.397982
vt 0.196194 0.397982
vt 0.146491 0.386351
vt 0.201011 0.386351
vt 0.139677 0.393165
vt 0.207826 0.393165
vt 0.079134 0.760975
vt 0.079134 0.386351
vt 0.133654 0.386351
vt 0.133654 0.760975
vt 0.018590 0.760975
vt 0.018590 0.386351
vt 0.073110 0.386351
vt 0.073110 0.760975
vt 0.001956 0.998008
vt 0.001956 0.764893
vt 0.056476 0.764893
vt 0.056476 0.998008
vt 0.063377 0.998008
vt 0.063377 0.764893
vt 0.117897 0.764893
vt 0.117897 0.998008
vt 0.599845 0.395574
vt 0.668201 0.751783
vt 0.276390 0.395574
vt 0.656362 0.395574
vn 0.000000 -1.000000 0.000000
vn 0.000000 -1.000000 0.000000
vn 0.000000 -1.000000 0.000000
vn 0.000000 -1.000000 0.000000
vn 0.000000 -1.000000 0.000000
vn 0.000000 -1.000000 0.000000
vn 0.000000 -1.000000 0.000000
vn 0.000000 -1.000000 0.000000
vn 0.000000 -1.000000 0.000000
vn 0.000000 -1.000000 0.000000
vn 0.000000 -1.000000 0.000000
vn 0.000000 -1.000000 0.000000
vn -0.721706 -0.654268 -0.225995
vn -0.721706 -0.654268 -0.225995
vn -0.707106 -0.591469 -0.387512
vn -0.707106 -0.591469 -0.387513
vn -0.707106 -0.707107 0.000000
vn -0.707106 -0.707107 0.000000
vn -0.500000 -0.707107 0.500000
vn -0.500000 -0.707107 0.500000
vn -0.500000 -0.707107 0.500000
vn -0.500000 -0.707107 0.500000
vn 0.721706 -0.654268 -0.225995
vn 0.721706 -0.654268 -0.225995
vn 0.707106 -0.591469 -0.387513
vn 0.707106 -0.591469 -0.387512
vn 0.707106 -0.707107 0.000000
vn 0.707106 -0.707107 0.000000
vn 0.500000 -0.707107 0.500000
vn 0.500000 -0.707107 0.500000
vn 0.500000 -0.707107 0.500000
vn 0.500000 -0.707107 0.500000
vn -0.721708 -0.654266 0.225994
vn -0.721708 -0.654266 0.225993
vn -0.707107 -0.707107 0.000000
vn -0.707107 -0.707107 0.000000
vn -0.707109 -0.591466 0.387510
vn -0.707109 -0.591466 0.387510
vn 0.721708 -0.654266 0.225993
vn 0.721708 -0.654266 0.225994
vn 0.707107 -0.707107 0.000000
vn 0.707107 -0.707107 0.000000
vn 0.707109 -0.591466 0.387510
vn 0.707109 -0.591466 0.387510
vn -0.721707 0.654267 0.225995
vn -0.721707 0.654268 0.225995
vn -0.707106 0.591469 0.387513
vn -0.707106 0.591469 0.387513
vn -0.707107 0.707106 0.000000
vn -0.707107 0.707106 0.000000
vn -0.500003 0.707105 -0.499999
vn -0.500003 0.707105 -0.499999
vn -0.500003 0.707105 -0.499999
vn -0.500003 0.707105 -0.499999
vn 0.721707 0.654268 0.225995
vn 0.721707 0.654267 0.225995
vn 0.707106 0.591469 0.387513
vn 0.707106 0.591469 0.387513
vn 0.707107 0.707106 0.000000
vn 0.707107 0.707106 0.000000
vn 0.500003 0.707105 -0.499999
vn 0.500003 0.707105 -0.499999
vn 0.500003 0.707105 -0.499999
vn 0.500003 0.707105 -0.499999
vn -0.721709 0.654266 -0.225994
vn -0.721709 0.654266 -0.225994
vn -0.707107 0.707107 0.000000
vn -0.707107 0.707107 0.000000
vn -0.707110 0.591466 -0.387510
vn -0.707110 0.591466 -0.387510
vn 0.721709 0.654266 -0.225994
vn 0.721709 0.654266 -0.225994
vn 0.707107 0.707107 0.000000
vn 0.707107 0.707107 0.000000
vn 0.707110 0.591466 -0.387510
vn 0.707110 0.591466 -0.387510
vn 0.000000 -0.707113 0.707101
vn 0.000000 -0.707113 0.707101
vn 0.000000 -0.707113 0.707101
vn 0.000000 -0.707113 0.707101
vn -0.500006 -0.707104 -0.499998
vn -0.500006 -0.707104 -0.499998
vn -0.500006 -0.707104 -0.499998
vn -0.500006 -0.707104 -0.499998
vn 0.000000 -0.707108 -0.707106
vn 0.000000 -0.707108 -0.707106
vn 0.000000 -0.707108 -0.707106
vn 0.000000 -0.707108 -0.707106
vn 0.500006 -0.707105 -0.499997
vn 0.500006 -0.707105 -0.499997
vn 0.500006 -0.707105 -0.499997
vn 0.500006 -0.707105 -0.499997
vn 0.000000 0.707106 -0.707108
vn 0.000000 0.707106 -0.707108
vn 0.000000 0.707106 -0.707108
vn 0.000000 0.707106 -0.707108
vn -0.500001 0.707108 0.499997
vn -0.500001 0.707108 0.499997
vn -0.500001 0.707108 0.499997
vn -0.500001 0.707108 0.499997
vn 0.000000 0.707110 0.707104
vn 0.000000 0.707110 0.707104
vn 0.000000 0.707110 0.707104
vn 0.000000 0.707110 0.707104
vn 0.500001 0.707109 0.499997
vn 0.500001 0.707108 0.499997
vn 0.500001 0.707108 0.499997
vn 0.500001 0.707109 0.499997
vn 0.000000 -1.000000 0.000000
vn 0.000000 -1.000000 0.000000
vn 0.000000 -1.000000 0.000000
vn 0.000000 -1.000000 0.000000
vn 0.000000 -1.000000 0.000000
vn 0.000000 -1.000000 0.000000
vn 0.000000 -0.836462 -0.548025
vn 0.000000 -0.836462 -0.548025
vn 0.000000 -0.836462 -0.548025
vn 0.000000 -0.836462 -0.548025
vn 0.000000 -0.836463 0.548024
vn 0.000000 -0.836463 0.548024
vn 0.000000 -0.836463 0.548024
vn 0.000000 -0.836463 0.548024
vn 0.000000 0.000000 -1.000000
vn 0.000000 0.000000 -1.000000
vn 0.000000 0.000000 -1.000000
vn 0.000000 0.000000 -1.000000
vn 0.000000 0.000000 1.000000
vn 0.000000 0.000000 1.000000
vn 0.000000 0.000000 1.000000
vn 0.000000 0.000000 1.000000
vn 0.000000 1.000000 -0.000001
vn 0.000000 1.000000 -0.000001
vn 0.000000 1.000000 -0.000001
vn 0.000000 1.000000 -0.000001
vn 1.000000 0.000000 0.000000
vn 1.000000 0.000000 0.000000
vn 1.000000 0.000000 0.000000
vn 1.000000 0.000000 0.000000
vn -1.000000 0.000000 0.000000
vn -1.000000 0.000000 0.000000
vn -1.000000 0.000000 0.000000
vn -1.000000 0.000000 0.000000
vn -1.000000 0.000000 0.000000
vn -1.000000 0.000000 0.000000
vn 0.000000 0.836462 0.548025
vn 0.000000 0.836462 0.548025
vn 0.000000 0.836462 0.548025
vn 0.000000 0.836462 0.548025
vn 1.000000 0.000000 0.000000
vn 1.000000 0.000000 0.000000
vn -1.000000 0.000000 0.000000
vn -1.000000 0.000000 0.000000
vn -1.000000 0.000000 0.000000
vn -1.000000 0.000000 0.000000
vn 1.000000 0.000000 0.000000
vn 1.000000 0.000000 0.000000
vn 1.000000 0.000000 0.000000
vn 1.000000 0.000000 0.000000
vn 0.000000 0.836462 -0.548025
vn 0.000000 0.836462 -0.548025
vn 0.000000 0.836462 -0.548025
vn 0.000000 0.836462 -0.548025
vn 0.000000 -1.000000 0.000000
vn 0.000000 -1.000000 0.000000
vn 0.000000 -1.000000 0.000000
vn 0.000000 -1.000000 0.000000
vn 0.000000 1.000000 0.000000
vn 0.000000 1.000000 0.000000
vn 0.000000 1.000000 0.000000
vn 0.000000 1.000000 0.000000
vn -0.707110 0.000000 -0.707104
vn -0.707110 0.000000 -0.707104
vn -0.707110 0.000000 -0.707104
vn -0.707110 0.000000 -0.707104
vn 0.707110 0.000000 -0.707104
vn 0.707110 0.000000 -0.707104
vn 0.707110 0.000000 -0.707104
vn 0.707110 0.000000 -0.707104
vn -0.707106 0.000000 0.707108
vn -0.707106 0.000000 0.707108
vn -0.707106 0.000000 0.707108
vn -0.707106 0.000000 0.707108
vn 0.707106 0.000000 0.707108
vn 0.707106 0.000000 0.707108
vn 0.707106 0.000000 0.707108
vn 0.707106 0.000000 0.707108
vn -0.721679 0.656084 0.220757
vn -0.721679 0.656084 0.220757
vn -0.707101 0.707113 0.000001
vn -0.707101 0.707113 0.000001
vn -0.707111 0.592370 0.386124
vn -0.707111 0.592370 0.386124
vn -0.707107 0.592374 -0.386126
vn -0.707107 0.592374 -0.386126
vn -0.721677 0.656086 -0.220757
vn -0.721677 0.656086 -0.220758
vn 0.721679 0.656084 0.220756
vn 0.721679 0.656084 0.220757
vn 0.707111 0.592370 0.386124
vn 0.707111 0.592370 0.386124
vn 0.707101 0.707113 0.000001
vn 0.707101 0.707113 0.000001
vn 0.707107 0.592374 -0.386126
vn 0.707107 0.592374 -0.386126
vn 0.721677 0.656086 -0.220758
vn 0.721677 0.656086 -0.220757
vn -0.707102 0.707112 -0.000001
vn -0.707102 0.707112 -0.000001
vn -0.500002 0.707106 -0.499999
vn -0.500002 0.707106 -0.499999
vn -0.500002 0.707106 -0.499999
vn 0.707102 0.707112 -0.000001
vn 0.707102 0.707112 -0.000001
vn 0.500002 0.707106 -0.499999
vn 0.500002 0.707106 -0.499999
vn 0.500002 0.707106 -0.499999
vn -0.499993 0.707111 0.500002
vn -0.499993 0.707111 0.500002
vn -0.499993 0.707111 0.500002
vn 0.000000 0.707116 0.707097
vn 0.000000 0.707116 0.707097
vn 0.000000 0.707116 0.707097
vn 0.000000 0.707116 0.707097
vn 0.499992 0.707110 0.500004
vn 0.499992 0.707110 0.500004
vn 0.499992 0.707110 0.500004
vn 0.000000 0.707116 -0.707097
vn 0.000000 0.707116 -0.707097
vn 0.000000 0.707116 -0.707097
vn 0.000000 0.707116 -0.707097
vn 0.000000 0.837743 0.546064
vn 0.000000 0.837743 0.546064
vn 0.000000 0.837743 0.546064
vn 0.000000 0.837743 0.546064
vn 0.000000 1.000000 0.000000
vn 0.000000 1.000000 0.000000
vn 0.000000 1.000000 0.000000
vn 0.000000 1.000000 0.000000
vn 0.000000 0.837744 -0.546064
vn 0.000000 0.837744 -0.546064
vn 0.000000 0.837744 -0.546064
vn 0.000000 0.837744 -0.546064
vn 0.000000 1.000000 -0.000000
vn 0.000000 1.000000 -0.000000
vn 0.000000 1.000000 -0.000000
vn 0.000000 1.000000 -0.000000
vn 0.000000 0.000000 1.000000
vn 0.000000 0.000000 1.000000
vn 0.000000 0.000000 1.000000
vn 0.000000 0.000000 1.000000
vn 0.000000 0.000000 -1.000000
vn 0.000000 0.000000 -1.000000
vn 0.000000 0.000000 -1.000000
vn 0.000000 0.000000 -1.000000
vn 1.000000 0.000000 0.000000
vn 1.000000 0.000000 0.000000
vn 1.000000 0.000000 0.000000
vn 1.000000 0.000000 0.000000
vn -1.000000 0.000000 0.000000
vn -1.000000 0.000000 0.000000
vn -1.000000 0.000000 0.000000
vn -1.000000 0.000000 0.000000
vn -1.000000 0.000000 0.000000
vn -1.000000 0.000000 0.000000
vn 1.000000 0.000000 0.000000
vn 1.000000 0.000000 0.000000
vn -1.000000 0.000000 0.000000
vn -1.000000 0.000000 0.000000
vn -1.000000 0.000000 0.000000
vn -1.000000 0.000000 0.000000
vn 1.000000 0.000000 0.000000
vn 1.000000 0.000000 0.000000
vn 1.000000 0.000000 0.000000
vn 1.000000 0.000000 0.000000
vn -0.707109 0.000000 0.707105
vn -0.707109 0.000000 0.707105
vn -0.707109 0.000000 0.707105
vn -0.707109 0.000000 0.707105
vn 0.707109 0.000000 0.707105
vn 0.707109 0.000000 0.707105
vn 0.707109 0.000000 0.707105
vn 0.707109 0.000000 0.707105
vn -0.707109 0.000000 -0.707105
vn -0.707109 0.000000 -0.707105
vn -0.707109 0.000000 -0.707105
vn -0.707109 0.000000 -0.707105
vn 0.707109 0.000000 -0.707105
vn 0.707109 0.000000 -0.707105
vn 0.707109 0.000000 -0.707105
vn 0.707109 0.000000 -0.707105
vn 0.000000 1.000000 0.000000
vn 0.000000 1.000000 0.000000
vn 0.000000 1.000000 0.000000
vn 0.000000 1.000000 0.000000
vn 0.000000 1.000000 0.000000
vn 0.000000 1.000000 0.000000
vn 0.000000 1.000000 0.000000
vn 0.000000 1.000000 0.000000
vn 0.000000 -1.000000 0.000000
vn 0.000000 -1.000000 0.000000
vn 0.000000 -1.000000 0.000000
vn 0.000000 -1.000000 0.000000
vn 0.000000 -1.000000 0.000000
vn 0.000000 -1.000000 0.000000
vn 0.000000 -1.000000 0.000000
vn 0.000000 -1.000000 0.000000
s 1
g DiamondWall_Low Wall
usemtl lambert2SG
f 9/113/25 10/114/26 14/115/27 13/116/28
s off
f 19/126/29 21/123/30 22/124/31 20/125/32
s 1
f 13/116/28 14/115/27 12/121/33 11/122/34
f 15/117/35 17/120/36 10/114/26 9/113/25
s 2
f 23/94/37 24/89/38 33/93/39 34/102/40
f 24/89/38 23/94/37 25/95/41 26/90/42
s off
f 26/127/43 25/128/44 55/129/45 56/130/46
s 3
f 27/65/47 28/69/48 37/75/49 38/71/50
f 28/69/48 27/65/47 30/64/51 29/70/52
s off
f 29/133/53 30/138/54 58/135/55 57/134/56
s 4
f 31/106/57 32/101/58 60/105/59 59/196/60
f 32/101/58 31/106/57 34/102/61 33/93/62
s 5
f 35/76/63 36/79/64 65/197/65 66/80/66
f 36/79/64 35/76/63 38/71/67 37/75/68
s 6
f 39/48/69 40/43/70 49/47/71 50/54/72
f 40/43/70 39/48/69 41/49/73 42/44/74
s off
f 42/44/75 41/49/76 67/55/77 68/50/78
s 7
f 43/23/79 44/27/80 53/32/81 54/29/82
f 44/27/80 43/23/79 46/22/83 45/28/84
s off
f 45/28/85 46/22/86 70/25/87 69/31/88
s 8
f 47/58/89 48/53/90 72/57/91 71/61/92
f 48/53/90 47/58/89 50/54/93 49/47/94
s 9
f 51/33/95 52/35/96 77/38/97 78/36/98
f 52/35/96 51/33/95 54/29/99 53/32/100
s off
f 56/130/101 55/129/102 57/134/103 58/135/104
f 59/110/105 60/105/106 62/109/107 61/112/108
f 61/141/109 62/143/110 64/144/111 63/142/112
f 63/87/113 64/85/114 66/80/115 65/83/116
f 68/153/117 67/149/118 69/148/119 70/154/120
f 71/61/121 72/57/122 74/60/123 73/62/124
f 73/158/125 74/161/126 76/162/127 75/159/128
f 75/41/129 76/40/130 78/36/131 77/38/132
f 23/131/133 28/132/134 29/133/135 57/134/136 55/129/137 25/128/138
f 34/136/139 37/137/140 28/132/141 23/131/142
f 31/139/143 36/140/144 37/137/145 34/136/146
f 16/179/147 68/180/148 70/181/149 18/182/150
f 74/183/151 20/184/152 22/185/153 76/186/154
f 41/150/155 45/147/156 69/148/157 67/149/158
s 10
f 17/21/159 46/22/160 43/23/161 10/24/162
s 11
f 9/42/163 40/43/164 42/44/165 15/45/166
f 13/46/167 49/47/168 40/43/164 9/42/163
s off
f 50/151/169 53/152/170 44/146/171 39/145/172
s 10
f 10/24/162 43/23/161 54/29/173 14/30/174
s 11
f 19/56/175 72/57/176 48/53/177 11/52/178
s 10
f 12/34/179 51/33/180 78/36/181 21/37/182
s 11
f 11/52/178 48/53/177 49/47/168 13/46/167
s off
f 47/155/183 52/156/184 53/152/185 50/151/186
s 10
f 14/30/174 54/29/173 51/33/180 12/34/179
s 12
f 59/195/187 61/141/188 63/142/189 65/198/190
s off
f 71/157/191 77/160/192 52/156/193 47/155/194
f 42/44/195 68/50/196 16/51/197 15/45/198
f 70/25/199 46/22/200 17/21/201 18/26/202
f 19/56/203 20/59/204 74/60/205 72/57/206
f 22/39/207 21/37/208 78/36/209 76/40/210
s 13
f 79/98/211 80/88/212 96/91/213 95/99/214
f 80/88/212 79/98/211 81/103/215 82/92/216
s 14
f 82/92/217 81/103/218 87/107/219 88/100/220
s 15
f 83/73/221 84/66/222 86/72/223 85/78/224
f 84/66/222 83/73/221 98/74/225 100/63/226
s 16
f 85/78/227 86/72/228 92/77/229 91/82/230
s 14
f 88/100/220 87/107/219 89/111/231 90/104/232
s off
f 90/104/233 89/111/234 101/108/235
s 16
f 91/82/230 92/77/229 94/81/236 93/86/237
s off
f 93/86/238 94/81/239 102/84/240
f 95/173/241 96/177/242 97/175/243
f 95/173/244 97/175/245 99/176/246 98/174/247
f 98/174/248 99/176/249 100/178/250
f 101/169/251 89/166/252 93/165/253 102/170/254
f 79/171/255 83/172/256 85/168/257 81/167/258
f 87/163/259 91/164/260 93/165/261 89/166/262
f 81/167/263 85/168/264 91/164/265 87/163/266
f 95/173/267 98/174/268 83/172/269 79/171/270
f 97/187/271 56/188/272 58/189/273 99/190/274
f 62/191/275 101/192/276 102/193/277 64/194/278
s 17
f 100/63/279 30/64/280 27/65/281 84/66/282
s 18
f 80/88/283 24/89/284 26/90/285 96/91/286
f 82/92/287 33/93/288 24/89/284 80/88/283
s 17
f 84/66/282 27/65/281 38/71/289 86/72/290
s 18
f 90/104/291 60/105/292 32/101/293 88/100/294
s 17
f 92/77/295 35/76/296 66/80/297 94/81/298
s 18
f 88/100/294 32/101/293 33/93/288 82/92/287
s 17
f 86/72/290 38/71/289 35/76/296 92/77/295
s off
f 26/90/299 56/96/300 97/97/301 96/91/302
f 58/67/303 30/64/304 100/63/305 99/68/306
f 90/104/307 101/108/308 62/109/309 60/105/310
f 102/84/311 94/81/312 66/80/313 64/85/314
f 71/157/315 73/158/316 75/159/317 77/160/318
f 39/145/319 44/146/320 45/147/321 41/150/322
s 12
f 59/195/187 65/198/190 36/140/323 31/139/324
s off
f 15/117/325 16/118/326 18/119/327 17/120/328
s 1
f 11/122/34 12/121/33 21/123/329 19/126/330
