# This file uses meters as units for non-parametric coordinates.

mtllib HealthPack.mtl
g default
v -0.092389 25.849421 0.115484
v -0.108719 25.856185 0.108719
v -0.115484 25.872516 0.092389
v -0.115484 25.872516 0.247371
v -0.108719 25.856185 0.263701
v -0.092389 25.849421 0.270465
v 0.115484 25.872516 0.092389
v 0.108719 25.856185 0.108719
v 0.092389 25.849421 0.115484
v 0.092389 25.849421 0.270465
v 0.108719 25.856185 0.263701
v 0.115484 25.872516 0.247371
v 0.092389 26.080388 0.115484
v 0.108719 26.073624 0.108719
v 0.115484 26.057294 0.092389
v 0.115484 26.057294 0.247371
v 0.108719 26.073624 0.263701
v 0.092389 26.080388 0.270465
v -0.115484 26.057294 0.092389
v -0.108719 26.073624 0.108719
v -0.092389 26.080388 0.115484
v -0.092389 26.080388 0.270465
v -0.108719 26.073624 0.263701
v -0.115484 26.057294 0.247371
v -0.092389 26.080388 -0.115484
v -0.108719 26.073624 -0.108719
v -0.115484 26.057294 -0.092389
v -0.115484 26.057294 -0.247371
v -0.108719 26.073624 -0.263701
v -0.092389 26.080388 -0.270465
v 0.115484 26.057294 -0.092389
v 0.108719 26.073624 -0.108719
v 0.092389 26.080388 -0.115484
v 0.092389 26.080388 -0.270465
v 0.108719 26.073624 -0.263701
v 0.115484 26.057294 -0.247371
v 0.092389 25.849421 -0.115484
v 0.108719 25.856185 -0.108719
v 0.115484 25.872516 -0.092389
v 0.115484 25.872516 -0.247371
v 0.108719 25.856185 -0.263701
v 0.092389 25.849421 -0.270465
v -0.115484 25.872516 -0.092389
v -0.108719 25.856185 -0.108719
v -0.092389 25.849421 -0.115484
v -0.092389 25.849421 -0.270465
v -0.108719 25.856185 -0.263701
v -0.115484 25.872516 -0.247371
v -0.115484 26.183335 0.092389
v -0.108719 26.199666 0.108719
v -0.092389 26.206430 0.115484
v 0.092389 26.206430 0.115484
v 0.108719 26.199666 0.108719
v 0.115484 26.183335 0.092389
v 0.115484 26.183335 -0.092389
v 0.108719 26.199666 -0.108719
v 0.092389 26.206430 -0.115484
v -0.092389 26.206430 -0.115484
v -0.108719 26.199666 -0.108719
v -0.115484 26.183335 -0.092389
v -0.115484 25.746474 -0.092389
v -0.108719 25.730144 -0.108719
v -0.092389 25.723380 -0.115484
v 0.092389 25.723380 -0.115484
v 0.108719 25.730144 -0.108719
v 0.115484 25.746474 -0.092389
v 0.115484 25.746474 0.092389
v 0.108719 25.730144 0.108719
v 0.092389 25.723380 0.115484
v -0.092389 25.723380 0.115484
v -0.108719 25.730144 0.108719
v -0.115484 25.746474 0.092389
vt 0.132793 0.159198
vt 0.117790 0.144195
vt 0.117790 0.001809
vt 0.132793 0.016812
vt 0.016995 0.159198
vt 0.001992 0.144195
vt 0.317557 0.001809
vt 0.302554 0.016812
vt 0.302554 0.159198
vt 0.132793 0.328959
vt 0.016995 0.328959
vt 0.001992 0.343962
vt 0.317557 0.144195
vt 0.302554 0.328959
vt 0.117790 0.343962
vt 0.433355 0.144195
vt 0.418352 0.159198
vt 0.418352 0.328959
vt 0.302554 0.471344
vt 0.132793 0.471344
vt 0.117790 0.486348
vt 0.433355 0.343962
vt 0.317557 0.343962
vt 0.317557 0.486348
vt 0.556499 0.343962
vt 0.571502 0.328959
vt 0.571502 0.471344
vt 0.556499 0.486348
vt 0.440701 0.343962
vt 0.455704 0.328959
vt 0.741263 0.328959
vt 0.741263 0.471344
vt 0.756266 0.486348
vt 0.440701 0.144195
vt 0.455704 0.159198
vt 0.571502 0.159198
vt 0.741263 0.159198
vt 0.756266 0.343962
vt 0.556499 0.144195
vt 0.571502 0.016812
vt 0.741263 0.016812
vt 0.857061 0.159198
vt 0.857061 0.328959
vt 0.872064 0.343962
vt 0.556499 0.001809
vt 0.756266 0.001809
vt 0.756266 0.144195
vt 0.872064 0.144195
vt 0.025799 0.690106
vt 0.032013 0.675103
vt 0.174399 0.675103
vt 0.168184 0.690106
vt 0.032013 0.505342
vt 0.174399 0.505342
vt 0.025799 0.490339
vt 0.168184 0.490339
vt 0.150592 0.694097
vt 0.144378 0.709100
vt 0.001992 0.709100
vt 0.008206 0.694097
vt 0.144378 0.878862
vt 0.001992 0.878862
vt 0.150592 0.893865
vt 0.008206 0.893865
vt 0.158103 0.906294
vt 0.164318 0.891290
vt 0.306703 0.891290
vt 0.300489 0.906294
vt 0.164318 0.721529
vt 0.306703 0.721529
vt 0.158103 0.706526
vt 0.300489 0.706526
vt 0.462620 0.706526
vt 0.456405 0.721529
vt 0.314019 0.721529
vt 0.320234 0.706526
vt 0.456405 0.891290
vt 0.314019 0.891290
vt 0.462620 0.906294
vt 0.320234 0.906294
vt 0.607342 0.490339
vt 0.777103 0.490339
vt 0.777103 0.702535
vt 0.607342 0.702535
vt 0.792106 0.496553
vt 0.792106 0.696320
vt 0.592339 0.496553
vt 0.592339 0.696320
vt 0.195537 0.490339
vt 0.365298 0.490339
vt 0.365298 0.702535
vt 0.195537 0.702535
vt 0.380301 0.496553
vt 0.380301 0.696320
vt 0.180534 0.496553
vt 0.180534 0.696320
vt 0.813244 0.490339
vt 0.983005 0.490339
vt 0.983005 0.702535
vt 0.813244 0.702535
vt 0.998008 0.496553
vt 0.998008 0.696320
vt 0.798241 0.496553
vt 0.798241 0.696320
vt 0.401439 0.490339
vt 0.571200 0.490339
vt 0.571200 0.702535
vt 0.401439 0.702535
vt 0.586203 0.496553
vt 0.586203 0.696320
vt 0.386436 0.496553
vt 0.386436 0.696320
vt 0.476150 0.891290
vt 0.476150 0.721529
vt 0.591948 0.721529
vt 0.591948 0.891290
vt 0.469936 0.706526
vt 0.585733 0.706526
vt 0.469936 0.906293
vt 0.585733 0.906293
vt 0.714364 0.721529
vt 0.714364 0.891290
vt 0.598566 0.891290
vt 0.598566 0.721529
vt 0.720579 0.906294
vt 0.604781 0.906294
vt 0.720579 0.706526
vt 0.604781 0.706526
vt 0.733412 0.891290
vt 0.733412 0.721529
vt 0.849209 0.721529
vt 0.849209 0.891290
vt 0.727197 0.706526
vt 0.842995 0.706526
vt 0.727197 0.906293
vt 0.842995 0.906293
vt 0.971626 0.721529
vt 0.971626 0.891290
vt 0.855828 0.891290
vt 0.855828 0.721529
vt 0.977840 0.906294
vt 0.862043 0.906294
vt 0.977840 0.706526
vt 0.862043 0.706526
vn -0.999968 -0.006222 0.005060
vn -0.923880 -0.382683 0.000000
vn -0.923880 -0.382683 0.000000
vn -0.997692 -0.041451 0.053788
vn -0.382683 -0.923880 0.000000
vn -0.040658 -0.999173 0.000000
vn -0.026296 -0.999654 0.000000
vn -0.382683 -0.923880 0.000000
vn 0.040658 -0.999173 0.000000
vn 0.382683 -0.923880 0.000000
vn 0.382683 -0.923880 0.000000
vn 0.026296 -0.999654 0.000000
vn 0.923880 -0.382683 0.000000
vn 0.999968 -0.006222 0.005060
vn 0.997692 -0.041451 0.053788
vn 0.923880 -0.382683 0.000000
vn 0.999968 0.006222 0.005060
vn 0.923880 0.382682 0.000000
vn 0.923880 0.382682 0.000000
vn 0.997692 0.041451 0.053788
vn 0.382683 0.923880 0.000000
vn 0.040658 0.999173 0.000000
vn 0.026296 0.999654 0.000000
vn 0.382683 0.923880 0.000000
vn -0.040658 0.999173 0.000000
vn -0.382683 0.923880 0.000000
vn -0.382683 0.923880 0.000000
vn -0.026296 0.999654 0.000000
vn -0.923880 0.382682 0.000000
vn -0.999968 0.006222 0.005060
vn -0.997692 0.041451 0.053788
vn -0.923880 0.382682 0.000000
vn -0.999968 0.006222 -0.005060
vn -0.923880 0.382682 0.000000
vn -0.923880 0.382682 0.000000
vn -0.997692 0.041451 -0.053788
vn -0.382683 0.923880 0.000000
vn -0.040658 0.999173 0.000000
vn -0.026296 0.999654 0.000000
vn -0.382683 0.923880 0.000000
vn 0.040658 0.999173 0.000000
vn 0.382683 0.923880 0.000000
vn 0.382683 0.923880 0.000000
vn 0.026296 0.999654 0.000000
vn 0.923880 0.382682 0.000000
vn 0.999968 0.006222 -0.005060
vn 0.997692 0.041451 -0.053788
vn 0.923880 0.382682 0.000000
vn 0.999968 -0.006222 -0.005060
vn 0.923880 -0.382683 0.000000
vn 0.923880 -0.382683 0.000000
vn 0.997692 -0.041451 -0.053788
vn 0.382683 -0.923880 0.000000
vn 0.040658 -0.999173 0.000000
vn 0.026296 -0.999654 0.000000
vn 0.382683 -0.923880 0.000000
vn -0.040658 -0.999173 0.000000
vn -0.382683 -0.923880 0.000000
vn -0.382683 -0.923880 0.000000
vn -0.026296 -0.999654 0.000000
vn -0.923880 -0.382683 0.000000
vn -0.999968 -0.006222 -0.005060
vn -0.997692 -0.041451 -0.053788
vn -0.923880 -0.382683 0.000000
vn -0.025574 0.000000 0.999673
vn 0.025574 0.000000 0.999673
vn 0.025574 0.000000 0.999673
vn -0.025574 0.000000 0.999673
vn -0.025574 0.999673 0.000000
vn 0.025574 0.999673 0.000000
vn 0.025574 0.999673 0.000000
vn -0.025574 0.999673 0.000000
vn -0.025574 0.000000 -0.999673
vn 0.025574 0.000000 -0.999673
vn 0.025574 0.000000 -0.999673
vn -0.025574 0.000000 -0.999673
vn -0.025574 -0.999673 0.000000
vn 0.025574 -0.999673 0.000000
vn 0.025574 -0.999673 0.000000
vn -0.025574 -0.999673 0.000000
vn -0.040658 0.000000 0.999173
vn 0.040658 0.000000 0.999173
vn 0.026296 0.000000 0.999654
vn -0.026296 0.000000 0.999654
vn 0.997127 0.064182 -0.040225
vn 0.997127 0.064182 0.040225
vn 0.040658 0.000000 -0.999173
vn -0.040658 0.000000 -0.999173
vn -0.026296 0.000000 -0.999654
vn 0.026296 0.000000 -0.999654
vn -0.997127 0.064182 0.040225
vn -0.997127 0.064182 -0.040225
vn -0.040658 0.000000 -0.999173
vn 0.040658 0.000000 -0.999173
vn 0.026296 0.000000 -0.999654
vn -0.026296 0.000000 -0.999654
vn 0.997127 -0.064182 0.040225
vn 0.997127 -0.064182 -0.040225
vn 0.040658 0.000000 0.999173
vn -0.040658 0.000000 0.999173
vn -0.026296 0.000000 0.999654
vn 0.026296 0.000000 0.999654
vn -0.997127 -0.064182 -0.040225
vn -0.997127 -0.064182 0.040225
vn -0.382683 0.000000 0.923880
vn -0.382683 0.000000 0.923880
vn -0.923880 0.000000 0.382683
vn -0.923880 0.000000 0.382683
vn 0.923880 0.000000 0.382683
vn 0.923880 0.000000 0.382683
vn 0.382683 0.000000 0.923880
vn 0.382683 0.000000 0.923880
vn 0.382683 0.000000 0.923880
vn 0.382683 0.000000 0.923880
vn 0.923880 0.000000 0.382683
vn 0.923880 0.000000 0.382683
vn 0.382682 0.000000 0.923880
vn 0.382682 0.000000 0.923880
vn 0.923880 0.000000 0.382682
vn 0.923880 0.000000 0.382682
vn -0.923880 0.000000 0.382683
vn -0.923880 0.000000 0.382683
vn -0.382683 0.000000 0.923880
vn -0.382683 0.000000 0.923880
vn -0.923880 0.000000 0.382683
vn -0.923880 0.000000 0.382683
vn -0.382682 0.000000 0.923880
vn -0.382682 0.000000 0.923880
vn -0.382683 0.000000 -0.923880
vn -0.382683 0.000000 -0.923880
vn -0.923880 0.000000 -0.382683
vn -0.923880 0.000000 -0.382683
vn 0.923880 0.000000 -0.382683
vn 0.923880 0.000000 -0.382683
vn 0.382683 0.000000 -0.923880
vn 0.382683 0.000000 -0.923880
vn 0.382683 0.000000 -0.923880
vn 0.382683 0.000000 -0.923880
vn 0.923880 0.000000 -0.382683
vn 0.923880 0.000000 -0.382683
vn 0.382682 0.000000 -0.923880
vn 0.382682 0.000000 -0.923880
vn 0.923880 0.000000 -0.382683
vn 0.923880 0.000000 -0.382683
vn -0.923880 0.000000 -0.382683
vn -0.923880 0.000000 -0.382683
vn -0.382683 0.000000 -0.923880
vn -0.382683 0.000000 -0.923880
vn -0.923880 0.000000 -0.382683
vn -0.923880 0.000000 -0.382683
vn -0.382682 0.000000 -0.923880
vn -0.382682 0.000000 -0.923880
vn 0.382683 0.923880 0.000000
vn 0.382683 0.923880 0.000000
vn 0.923880 0.382683 0.000000
vn 0.923880 0.382683 0.000000
vn -0.923880 0.382683 0.000000
vn -0.923880 0.382683 0.000000
vn -0.382683 0.923880 0.000000
vn -0.382683 0.923880 0.000000
vn 0.382683 -0.923880 0.000000
vn 0.382683 -0.923880 0.000000
vn 0.923880 -0.382683 0.000000
vn 0.923880 -0.382683 0.000000
vn -0.923880 -0.382683 0.000000
vn -0.923880 -0.382683 0.000000
vn -0.382683 -0.923880 0.000000
vn -0.382683 -0.923880 0.000000
s 1
g HealthPack
usemtl initialShadingGroup
f 3/1/1 2/2/2 5/3/3 4/4/4
s 2
f 2/49/5 1/50/6 6/51/7 5/52/8
f 9/53/9 8/55/10 11/56/11 10/54/12
s 3
f 8/25/13 7/26/14 12/27/15 11/28/16
f 15/31/17 14/38/18 17/33/19 16/32/20
s 4
f 14/57/21 13/58/22 18/59/23 17/60/24
f 21/61/25 20/63/26 23/64/27 22/62/28
s 1
f 20/13/29 19/9/30 24/8/31 23/7/32
f 27/14/33 26/23/34 29/24/35 28/19/36
s 6
f 26/65/37 25/66/38 30/67/39 29/68/40
f 33/69/41 32/71/42 35/72/43 34/70/44
s 3
f 32/47/45 31/37/46 36/41/47 35/46/48
f 39/36/49 38/39/50 41/45/51 40/40/52
s 8
f 38/73/53 37/74/54 42/75/55 41/76/56
f 45/77/57 44/79/58 47/80/59 46/78/60
s 1
f 44/15/61 43/10/62 48/20/63 47/21/64
s 9
f 6/97/65 10/98/66 18/99/67 22/100/68
s 10
f 51/81/69 52/82/70 57/83/71 58/84/72
s 11
f 30/105/73 34/106/74 42/107/75 46/108/76
s 12
f 63/89/77 64/90/78 69/91/79 70/92/80
s 3
f 7/26/14 39/36/49 31/37/46 15/31/17
s 1
f 43/10/62 3/1/1 19/9/30 27/14/33
s 2
f 1/50/6 9/53/9 10/54/12 6/51/7
s 3
f 7/26/14 15/31/17 16/32/20 12/27/15
s 4
f 13/58/22 21/61/25 22/62/28 18/59/23
s 1
f 19/9/30 3/1/1 4/4/4 24/8/31
s 6
f 25/66/38 33/69/41 34/70/44 30/67/39
s 3
f 31/37/46 39/36/49 40/40/52 36/41/47
s 8
f 37/74/54 45/77/57 46/78/60 42/75/55
s 1
f 43/10/62 27/14/33 28/19/36 48/20/63
s 15
f 21/113/81 13/114/82 52/115/83 51/116/84
s 3
f 15/31/17 31/37/46 55/42/85 54/43/86
s 16
f 33/121/87 25/122/88 58/123/89 57/124/90
s 1
f 27/14/33 19/9/30 49/17/91 60/18/92
s 17
f 45/129/93 37/130/94 64/131/95 63/132/96
s 3
f 39/36/49 7/26/14 67/30/97 66/35/98
s 18
f 9/137/99 1/138/100 70/139/101 69/140/102
s 1
f 3/1/1 43/10/62 61/11/103 72/5/104
s 18
f 1/138/100 2/141/105 71/142/106 70/139/101
s 1
f 2/2/107 3/1/1 72/5/104 71/6/108
s 3
f 7/26/14 8/25/109 68/29/110 67/30/97
s 18
f 8/143/111 9/137/99 69/140/102 68/144/112
s 15
f 13/114/82 14/117/113 53/118/114 52/115/83
s 3
f 14/38/115 15/31/17 54/43/86 53/44/116
s 9
f 10/98/66 11/101/117 17/102/118 18/99/67
s 3
f 11/28/119 12/27/15 16/32/20 17/33/120
s 1
f 19/9/30 20/13/121 50/16/122 49/17/91
s 15
f 20/119/123 21/113/81 51/116/84 50/120/124
s 1
f 4/4/4 5/3/125 23/7/126 24/8/31
s 9
f 5/103/127 6/97/65 22/100/68 23/104/128
s 16
f 25/122/88 26/125/129 59/126/130 58/123/89
s 1
f 26/23/131 27/14/33 60/18/92 59/22/132
s 3
f 31/37/46 32/47/133 56/48/134 55/42/85
s 16
f 32/127/135 33/121/87 57/124/90 56/128/136
s 17
f 37/130/94 38/133/137 65/134/138 64/131/95
s 3
f 38/39/139 39/36/49 66/35/98 65/34/140
s 11
f 34/106/74 35/109/141 41/110/142 42/107/75
s 3
f 35/46/143 36/41/47 40/40/52 41/45/144
s 1
f 43/10/62 44/15/145 62/12/146 61/11/103
s 17
f 44/135/147 45/129/93 63/132/96 62/136/148
s 1
f 28/19/36 29/24/149 47/21/150 48/20/63
s 11
f 29/111/151 30/105/73 46/108/76 47/112/152
s 10
f 52/82/70 53/85/153 56/86/154 57/83/71
s 3
f 53/44/155 54/43/86 55/42/85 56/48/156
s 1
f 49/17/91 50/16/157 59/22/158 60/18/92
s 10
f 50/87/159 51/81/69 58/84/72 59/88/160
s 12
f 64/90/78 65/93/161 68/94/162 69/91/79
s 3
f 65/34/163 66/35/98 67/30/97 68/29/164
s 1
f 61/11/103 62/12/165 71/6/166 72/5/104
s 12
f 62/95/167 63/89/77 70/92/80 71/96/168
