# This file uses meters as units for non-parametric coordinates.

mtllib UpgradeCube.mtl
g default
v -50.000000 -50.000000 50.000000
v 50.000000 -50.000000 50.000000
v -50.000000 50.000000 50.000000
v 50.000000 50.000000 50.000000
v -50.000000 50.000000 -50.000000
v 50.000000 50.000000 -50.000000
v -50.000000 -50.000000 -50.000000
v 50.000000 -50.000000 -50.000000
v 1.299082 -50.000000 50.000000
v 1.299082 50.000000 50.000000
v 1.299082 50.000000 -50.000000
v 1.299082 -50.000000 -50.000000
v -1.299082 -50.000000 50.000000
v -1.299082 50.000000 50.000000
v -1.299082 50.000000 -50.000000
v -1.299082 -50.000000 -50.000000
v -1.299082 50.000000 47.205902
v -1.299082 -50.000000 47.205902
v 1.299082 -50.000000 47.205902
v 1.299082 50.000000 47.205902
v -1.299082 -50.000000 -47.205902
v -1.299082 50.000000 -47.205902
v 1.299082 50.000000 -47.205902
v 1.299082 -50.000000 -47.205902
v -52.337738 50.000000 52.337738
v -55.844944 53.507206 55.844944
v -1.359834 50.000000 52.338329
v -1.450939 53.507797 55.844944
v 52.337738 50.000000 52.337738
v 55.844944 53.507206 55.844944
v 55.844944 53.507206 -55.844944
v 52.337738 50.000000 -52.337738
v -52.337738 50.000000 -52.337738
v -55.844944 53.507206 -55.844944
v -1.450939 53.507797 -55.844944
v -1.359834 50.000000 -52.338329
v -55.844944 61.025517 55.844944
v -52.337738 64.532722 52.337738
v -1.450939 61.025517 55.844944
v -1.450939 64.532722 52.337738
v 55.844944 61.025517 55.844944
v 52.337738 64.532722 52.337738
v 52.337738 64.532722 -52.337738
v 55.844944 61.025517 -55.844944
v -52.337738 64.532722 -52.337738
v -55.844944 61.025517 -55.844944
v -1.450939 64.532722 -52.337738
v -1.450939 61.025517 -55.844944
v -0.000000 61.025517 55.844944
v -0.000000 64.532722 52.337738
v 1.450939 61.025517 55.844944
v 1.450939 64.532722 52.337738
v 1.359834 50.000000 52.338329
v 1.450939 53.507797 55.844944
v 1.450939 64.532722 -52.337738
v 1.450939 61.025517 -55.844944
v 1.450939 53.507797 -55.844944
v 1.359834 50.000000 -52.338329
vt 0.409513 0.331855
vt 0.701417 0.331855
vt 0.701417 0.623759
vt 0.409513 0.623759
vt 0.111473 0.331855
vt 0.403377 0.331855
vt 0.403377 0.623759
vt 0.111473 0.623759
vt 0.481629 0.919655
vt 0.481629 0.627751
vt 0.489785 0.627751
vt 0.489785 0.919655
vt 0.505377 0.627751
vt 0.505377 0.919655
vt 0.497221 0.919655
vt 0.497221 0.627751
vt 0.520969 0.627751
vt 0.520969 0.919655
vt 0.512812 0.919655
vt 0.512812 0.627751
vt 0.528404 0.919655
vt 0.528404 0.627751
vt 0.536560 0.627751
vt 0.536560 0.919655
vt 0.727690 0.327863
vt 0.727690 0.001836
vt 0.749636 0.001836
vt 0.749636 0.327863
vt 0.717452 0.317626
vt 0.717452 0.012073
vt 0.759874 0.317626
vt 0.759874 0.012073
vt 0.678966 0.327863
vt 0.678966 0.001836
vt 0.700913 0.001836
vt 0.700913 0.327863
vt 0.668729 0.012073
vt 0.668729 0.317626
vt 0.711150 0.012073
vt 0.711150 0.317626
vt 0.707552 0.331855
vt 0.849712 0.331855
vt 0.849712 0.623759
vt 0.707552 0.623759
vt 0.300377 0.919655
vt 0.300377 0.627751
vt 0.442537 0.627751
vt 0.442537 0.919655
vt 0.161214 0.302646
vt 0.168798 0.302646
vt 0.168798 0.310802
vt 0.161214 0.310802
vt 0.168975 0.317627
vt 0.161037 0.317627
vt 0.160771 0.327863
vt 0.169241 0.327863
vt 0.019054 0.310802
vt 0.012230 0.317626
vt 0.310958 0.310802
vt 0.317782 0.317626
vt 0.001992 0.327863
vt 0.328020 0.327863
vt 0.019054 0.018897
vt 0.012230 0.012073
vt 0.310958 0.018897
vt 0.317782 0.012073
vt 0.161037 0.012072
vt 0.161214 0.018897
vt 0.168798 0.018897
vt 0.168975 0.012072
vt 0.001992 0.001836
vt 0.160771 0.001836
vt 0.328020 0.001836
vt 0.169241 0.001836
vt 0.161214 0.027053
vt 0.168798 0.027053
vt 0.551580 0.903343
vt 0.543996 0.903343
vt 0.543996 0.627751
vt 0.551580 0.627751
vt 0.345695 0.012073
vt 0.494236 0.012073
vt 0.494236 0.317626
vt 0.345695 0.317626
vt 0.335458 0.001836
vt 0.494236 0.001836
vt 0.502707 0.317626
vt 0.498472 0.012073
vt 0.502707 0.012073
vt 0.335458 0.327863
vt 0.494236 0.327863
vt 0.498472 0.001836
vt 0.502707 0.001836
vt 0.502707 0.327863
vt 0.651248 0.012073
vt 0.651248 0.317626
vt 0.661486 0.001836
vt 0.661486 0.327863
vt 0.824645 0.001836
vt 0.966805 0.001836
vt 0.966805 0.293740
vt 0.824645 0.293740
vt 0.855848 0.297732
vt 0.998008 0.297732
vt 0.998008 0.589636
vt 0.855848 0.589636
vt 0.001992 0.919655
vt 0.001992 0.627751
vt 0.144152 0.627751
vt 0.144152 0.919655
vt 0.150307 0.919655
vt 0.150307 0.627751
vt 0.292467 0.627751
vt 0.292467 0.919655
vt 0.450446 0.919655
vt 0.450446 0.627751
vt 0.458030 0.627751
vt 0.458030 0.919655
vt 0.473622 0.919655
vt 0.466038 0.919655
vt 0.466038 0.627751
vt 0.473622 0.627751
vt 0.766176 0.327863
vt 0.766178 0.169085
vt 0.788122 0.169085
vt 0.788122 0.327863
vt 0.788122 0.164850
vt 0.766178 0.160614
vt 0.788122 0.160614
vt 0.766176 0.001836
vt 0.788122 0.001836
vt 0.795411 0.169085
vt 0.817355 0.169085
vt 0.817357 0.327863
vt 0.795411 0.327863
vt 0.817355 0.160614
vt 0.795411 0.160614
vt 0.817357 0.001836
vt 0.795411 0.001836
vn 0.000000 0.000000 1.000000
vn 0.000000 0.000000 1.000000
vn 0.000000 0.000000 1.000000
vn 0.000000 0.000000 1.000000
vn 0.000000 0.000000 -1.000000
vn 0.000000 0.000000 -1.000000
vn 0.000000 0.000000 -1.000000
vn 0.000000 0.000000 -1.000000
vn 0.000000 -1.000000 0.000000
vn 0.000000 -1.000000 0.000000
vn 0.000000 -1.000000 0.000000
vn 0.000000 -1.000000 0.000000
vn 1.000000 0.000000 0.000000
vn 1.000000 0.000000 0.000000
vn 1.000000 0.000000 0.000000
vn 1.000000 0.000000 0.000000
vn -1.000000 0.000000 0.000000
vn -1.000000 0.000000 0.000000
vn -1.000000 0.000000 0.000000
vn -1.000000 0.000000 0.000000
vn 0.000000 0.000000 1.000000
vn 0.000000 0.000000 1.000000
vn 0.000000 0.000000 1.000000
vn 0.000000 0.000000 1.000000
vn 0.000000 0.000000 -1.000000
vn 0.000000 0.000000 -1.000000
vn 0.000000 0.000000 -1.000000
vn 0.000000 0.000000 -1.000000
vn 0.000000 -1.000000 0.000000
vn 0.000000 -1.000000 0.000000
vn 0.000000 -1.000000 0.000000
vn 0.000000 -1.000000 0.000000
vn 0.000000 0.000000 1.000000
vn 0.000000 0.000000 1.000000
vn 0.000000 0.000000 1.000000
vn 0.000000 0.000000 1.000000
vn 0.000000 0.000000 -1.000000
vn 0.000000 0.000000 -1.000000
vn 0.000000 0.000000 -1.000000
vn 0.000000 0.000000 -1.000000
vn 1.000000 0.000000 0.000000
vn 1.000000 0.000000 0.000000
vn 1.000000 0.000000 0.000000
vn 1.000000 0.000000 0.000000
vn -1.000000 0.000000 0.000000
vn -1.000000 0.000000 0.000000
vn -1.000000 0.000000 0.000000
vn -1.000000 0.000000 0.000000
vn 0.000000 -1.000000 0.000000
vn 0.000000 -1.000000 0.000000
vn 0.000000 -1.000000 0.000000
vn 0.000000 -1.000000 0.000001
vn 1.000000 0.000000 0.000000
vn 1.000000 0.000000 0.000000
vn 1.000000 0.000000 0.000000
vn 1.000000 0.000000 0.000000
vn 0.000000 -1.000000 0.000000
vn 0.000000 -1.000000 -0.000000
vn 0.000000 -1.000000 -0.000001
vn 0.000000 -1.000000 0.000000
vn -1.000000 0.000000 0.000000
vn -1.000000 0.000000 0.000000
vn -1.000000 0.000000 0.000000
vn -1.000000 0.000000 0.000000
vn 0.000000 -1.000000 0.000000
vn 0.000000 -1.000000 0.000000
vn 0.000000 -1.000000 0.000000
vn 0.000000 -1.000000 0.000000
vn -0.707107 -0.707107 0.000000
vn -0.707107 -0.707107 0.000000
vn -0.707107 -0.707107 0.000000
vn -0.707107 -0.707107 0.000000
vn -0.000000 -0.707047 0.707166
vn -0.000000 -0.707047 0.707166
vn -0.000000 -0.707044 0.707169
vn -0.000000 -0.707044 0.707169
vn 0.000000 -0.707044 0.707169
vn 0.000000 -0.707044 0.707169
vn 0.000000 -0.707047 0.707166
vn 0.000000 -0.707047 0.707166
vn 0.707107 -0.707107 0.000000
vn 0.707107 -0.707107 0.000000
vn 0.707107 -0.707107 0.000000
vn 0.707107 -0.707107 0.000000
vn 0.000000 -0.707047 -0.707166
vn 0.000000 -0.707047 -0.707166
vn 0.000000 -0.707044 -0.707169
vn 0.000000 -0.707044 -0.707169
vn 0.000000 -0.707047 -0.707166
vn 0.000000 -0.707047 -0.707166
vn 0.000000 -0.707044 -0.707169
vn 0.000000 -0.707044 -0.707169
vn -0.707107 0.707107 0.000000
vn -0.707107 0.707107 0.000000
vn -0.707107 0.707107 0.000000
vn -0.707107 0.707107 0.000000
vn 0.000000 0.707107 0.707107
vn 0.000000 0.707107 0.707107
vn 0.000000 0.707107 0.707107
vn 0.000000 0.707107 0.707107
vn 0.000000 0.707107 0.707107
vn 0.000000 0.707107 0.707107
vn 0.000000 0.707107 0.707107
vn 0.000000 0.707107 0.707107
vn 0.000000 0.707107 0.707107
vn 0.000000 0.707107 0.707107
vn 0.707107 0.707107 0.000000
vn 0.707107 0.707107 0.000000
vn 0.707107 0.707107 0.000000
vn 0.707107 0.707107 0.000000
vn 0.000000 0.707107 -0.707107
vn 0.000000 0.707107 -0.707107
vn 0.000000 0.707107 -0.707107
vn 0.000000 0.707107 -0.707107
vn 0.000000 0.707107 -0.707107
vn 0.000000 0.707107 -0.707107
vn 0.000000 0.707107 -0.707107
vn 0.000000 0.707107 -0.707107
vn 0.000000 1.000000 0.000000
vn 0.000000 1.000000 0.000000
vn 0.000000 1.000000 0.000000
vn 0.000000 1.000000 0.000000
vn 0.000000 -1.000000 0.000000
vn 0.000000 -1.000000 0.000001
vn 0.000000 -1.000000 0.000000
vn 0.000000 -1.000000 0.000000
vn 0.000000 -1.000000 -0.000000
vn 0.000000 -1.000000 -0.000000
vn 0.000000 -1.000000 0.000000
vn 0.000000 -1.000000 -0.000000
vn 0.000000 -1.000000 0.000000
vn 0.000000 -1.000000 0.000000
vn 0.000000 0.000000 1.000000
vn 0.000000 0.000000 1.000000
vn 0.000000 0.000000 1.000000
vn 0.000000 0.000000 1.000000
vn 1.000000 0.000000 0.000000
vn 1.000000 0.000000 0.000000
vn 1.000000 0.000000 0.000000
vn 1.000000 0.000000 0.000000
vn 0.000000 0.000000 -1.000000
vn 0.000000 0.000000 -1.000000
vn 0.000000 0.000000 -1.000000
vn 0.000000 0.000000 -1.000000
vn -1.000000 0.000000 0.000000
vn -1.000000 0.000000 0.000000
vn -1.000000 0.000000 0.000000
vn -1.000000 0.000000 0.000000
vn 0.000000 -1.000000 0.000000
vn 0.000000 0.000000 1.000000
vn 0.000000 0.000000 1.000000
vn 0.000000 0.000000 1.000000
vn 0.000000 0.000000 1.000000
vn 0.000000 1.000000 0.000000
vn 0.000000 1.000000 0.000000
vn 0.000000 1.000000 0.000000
vn 0.000000 1.000000 0.000000
vn 0.000000 0.000000 -1.000000
vn 0.000000 0.000000 -1.000000
vn 0.000000 0.000000 -1.000000
vn 0.000000 0.000000 -1.000000
vn 0.000000 -1.000000 -0.000001
vn 0.000000 0.000000 1.000000
vn 0.000000 1.000000 0.000000
s off
g UpgradeCube
usemtl lambert2SG
f 1/99/1 13/100/2 14/101/3 3/102/4
f 5/103/5 15/104/6 16/105/7 7/106/8
f 7/41/9 16/42/10 13/43/11 1/44/12
f 2/1/13 8/2/14 6/3/15 4/4/16
f 7/5/17 1/6/18 3/7/19 5/8/20
f 10/107/21 9/108/22 2/109/23 4/110/24
f 12/111/25 11/112/26 6/113/27 8/114/28
f 9/45/29 12/46/30 8/47/31 2/48/32
usemtl lambert4SG
f 17/115/33 18/116/34 19/117/35 20/118/36
f 24/119/37 21/120/38 22/121/39 23/122/40
usemtl lambert2SG
f 14/9/41 13/10/42 18/11/43 17/12/44
f 9/13/45 10/14/46 20/15/47 19/16/48
s 1
f 17/49/49 20/50/50 10/51/51 14/52/52
s off
f 16/17/53 15/18/54 22/19/55 21/20/56
s 1
f 22/75/57 15/68/58 11/69/59 23/76/60
s off
f 11/21/61 12/22/62 24/23/63 23/24/64
f 19/77/65 18/78/66 21/79/67 24/80/68
f 25/37/69 26/34/70 34/33/71 33/38/72
s 3
f 26/61/73 25/58/74 27/54/75 28/55/76
f 28/55/76 27/54/75 53/53/77 54/56/78
f 29/60/79 30/62/80 54/56/78 53/53/77
s off
f 30/25/81 29/29/82 32/30/83 31/26/84
s 4
f 31/73/85 32/66/86 58/70/87 57/74/88
f 33/64/89 34/71/90 35/72/91 36/67/92
f 36/67/92 35/72/91 57/74/88 58/70/87
s off
f 37/35/93 38/39/94 45/40/95 46/36/96
s 5
f 38/81/97 37/85/98 39/86/99 40/82/100
f 50/88/101 40/82/100 39/86/99 49/92/102 51/93/103 52/89/104
f 41/97/105 42/95/106 52/89/104 51/93/103
s off
f 42/31/107 41/28/108 44/27/109 43/32/110
s 6
f 43/96/111 44/98/112 56/94/113 55/87/114
f 46/90/115 45/84/116 47/83/117 48/91/118
f 48/91/118 47/83/117 55/87/114 56/94/113
s 7
f 38/81/119 40/82/120 47/83/121 45/84/122
s 1
f 3/57/123 14/52/52 27/54/124 25/58/125
f 4/59/126 6/65/127 32/66/128 29/60/129
f 36/67/130 15/68/58 5/63/131 33/64/132
f 5/63/131 3/57/123 25/58/125 33/64/132
s 9
f 26/123/133 28/124/134 39/125/135 37/126/136
s off
f 30/25/137 31/26/138 44/27/139 41/28/140
s 10
f 48/132/141 35/133/142 34/134/143 46/135/144
s off
f 34/33/145 26/34/146 37/35/147 46/36/148
s 1
f 53/53/149 10/51/51 4/59/126 29/60/129
s 9
f 51/129/150 54/128/151 30/130/152 41/131/153
s 7
f 55/87/154 52/89/155 42/95/156 43/96/157
s 10
f 31/138/158 57/136/159 56/137/160 44/139/161
s 1
f 6/65/127 11/69/59 58/70/162 32/66/128
f 53/53/149 27/54/124 14/52/52 10/51/51
s 9
f 49/127/163 39/125/135 28/124/134 54/128/151 51/129/150
s 7
f 55/87/154 47/83/121 40/82/120 50/88/164 52/89/155
s 10
f 57/136/159 35/133/142 48/132/141 56/137/160
s 1
f 11/69/59 15/68/58 36/67/130 58/70/162
